<?xml version="1.0" encoding="UTF-8"?> <svg xmlns="http://www.w3.org/2000/svg" id="IdeaPressLogo_OnWhite_HighRes_Image" data-name="IdeaPressLogo_OnWhite_HighRes Image" viewBox="0 0 269.32 378.92"><defs><style>.cls-1{fill:#fff;fill-rule:evenodd;}</style></defs><path class="cls-1" d="M231.58,276.57c-1.15.72-2.2,1.41-3.27,2.05-2.14,1.28-4.27,2.6-6.48,3.77-.23.13-.46.26-.7.38-1.87,1-3.74,1.89-5.64,2.79-3.22,1.54-6.51,2.92-9.83,4.24-.91.36-1.84.67-2.76,1-2,.73-4.05,1.39-6.1,2q-3.77,1.17-7.62,2.08c-2,.47-4,.85-6,1.3s-4.31.74-6.46,1.13c-1.05.19-2.12.28-3.18.39-1.33.14-2.65.28-4,.46a14.32,14.32,0,0,1-1.47.08c-1.24,0-2.48.19-3.73.24-3.21.15-6.43,0-9.64.09-1.79,0-3.57-.1-5.36-.11a19.74,19.74,0,0,0-2.66-.22c-2.05-.11-4.08-.39-6.11-.63-2.88-.33-5.74-.81-8.58-1.36-2.19-.43-4.37-.89-6.54-1.41-3.21-.78-6.38-1.69-9.53-2.7q-3.44-1.11-6.81-2.4c-2.42-.92-4.82-1.9-7.16-3-2-.92-4-1.81-5.92-2.81-2.3-1.2-4.59-2.41-6.8-3.76s-4.19-2.56-6.25-3.88c-1.46-.95-2.88-1.95-4.3-3-2.17-1.56-4.3-3.18-6.36-4.88q-2.33-1.92-4.58-3.91c-1.5-1.34-3-2.71-4.39-4.13-.22-.22-.46-.41-.69-.62a7,7,0,0,1-.88-.83,30.29,30.29,0,0,0-2.2-2.33c-.76-.82-1.55-1.61-2.29-2.45-1.32-1.51-2.63-3-3.91-4.57-1-1.17-1.89-2.37-2.84-3.56-1.75-2.2-3.35-4.51-4.93-6.84-1.12-1.65-2.18-3.36-3.24-5.07-1.52-2.47-2.92-5-4.29-7.57A134.36,134.36,0,0,1,32,213.34c-1.47-3.69-2.75-7.45-3.87-11.26-.8-2.69-1.54-5.4-2.11-8.16-.38-1.83-.79-3.66-1.15-5.5-.25-1.22-.42-2.46-.62-3.69-.29-1.76-.53-3.52-.68-5.3-.09-1.06-.27-2.12-.39-3.18a16.63,16.63,0,0,1-.14-1.87c0-1.16-.27-2.3-.19-3.47-.24-4-.06-8-.1-12,0-.67.08-1.34.1-2a13.35,13.35,0,0,1,.13-2,14.93,14.93,0,0,0,.13-2c.06-1.39.25-2.75.43-4.12.12-.84.18-1.68.29-2.52.4-3.24,1-6.44,1.62-9.63.58-2.84,1.24-5.66,2-8.46s1.59-5.57,2.61-8.29c.43-1.17.82-2.36,1.27-3.53.67-1.75,1.35-3.49,2.08-5.22.86-2.06,1.82-4.07,2.76-6.09.81-1.75,1.73-3.43,2.64-5.12s1.85-3.36,2.83-5c.85-1.42,1.78-2.78,2.64-4.19,1-1.68,2.17-3.27,3.3-4.88,1.79-2.56,3.7-5,5.69-7.43.88-1.07,1.77-2.13,2.68-3.17.67-.78,1.41-1.49,2.07-2.28.89-1.07,1.89-2,2.87-3a21.66,21.66,0,0,1,1.75-1.84,22.51,22.51,0,0,0,1.74-1.65c1-1,2.16-2,3.25-3,1.55-1.42,3.15-2.76,4.78-4.09,2.84-2.31,5.78-4.48,8.79-6.56,2.28-1.57,4.63-3,7-4.49,1.2-.76,2.46-1.45,3.71-2.13,1.76-1,3.53-1.91,5.33-2.81,2.15-1.08,4.33-2.1,6.56-3q2.52-1.06,5.07-2.1c.37-.16.75-.28,1.13-.42,3-1.12,6-2.14,9-3,2.74-.81,5.49-1.58,8.29-2.16,1.92-.4,3.83-.82,5.76-1.2,1.13-.23,2.28-.39,3.43-.58,1.8-.29,3.61-.54,5.43-.7,1.11-.09,2.21-.28,3.31-.41.45-.05.89,0,1.34-.06,1.34-.06,2.66-.21,4-.27,4.06-.16,8.13,0,12.19-.07a21.94,21.94,0,0,1,2.81.11c1.24.15,2.49.16,3.73.27,1.06.08,2.12.26,3.18.39l2.65.29c1.69.17,3.36.5,5,.76,2.6.41,5.17,1,7.73,1.56,3.23.73,6.4,1.61,9.56,2.58,2.69.83,5.34,1.76,8,2.75,2.25.86,4.48,1.77,6.68,2.77,2,.9,4,1.79,5.93,2.8s4,2.13,6,3.23c1.8,1,3.54,2.08,5.28,3.16,2.47,1.53,4.86,3.18,7.21,4.87,2.53,1.83,5,3.75,7.38,5.77,1.06.9,2.1,1.81,3.14,2.72q2.26,2,4.39,4.12c.22.22.46.41.69.63a7.74,7.74,0,0,1,.78.73c.81,1,1.79,1.86,2.68,2.8s1.53,1.74,2.32,2.59c1.19,1.28,2.31,2.61,3.41,4,.92,1.14,1.86,2.28,2.76,3.44,1.6,2,3.09,4.15,4.56,6.28,2.11,3,4,6.2,5.89,9.42q2,3.48,3.78,7.08c.71,1.44,1.37,2.91,2,4.37,1,2.16,1.89,4.33,2.73,6.54.5,1.34,1,2.68,1.46,4,.41,1.13.79,2.27,1.16,3.42.83,2.54,1.55,5.12,2.24,7.71.61,2.29,1.1,4.6,1.58,6.91.37,1.84.74,3.68,1,5.54.05.39.11.79.18,1.19.28,1.44.38,2.91.57,4.37.15,1.15.17,2.31.41,3.45a6.52,6.52,0,0,1,.08,1.33c0,1.25.18,2.49.24,3.73.14,3,0,6,.08,9,0,.89,0,1.79,0,2.68,0,1.16,0,2.32-.12,3.48s-.12,2.4-.27,3.59c-.11.89-.18,1.77-.29,2.65-.13,1.07-.27,2.13-.4,3.19-.31,2.57-.75,5.11-1.21,7.66-.37,2-.85,4-1.27,6-.29,1.39-.67,2.77-1.07,4.15-.71,2.44-1.39,4.89-2.21,7.3s-1.73,5-2.72,7.41q-1.62,4-3.45,7.84a133.26,133.26,0,0,1-7.54,13.71q-2.44,3.92-5.17,7.65a1,1,0,0,0-.2.87c.27,1.22.54,2.44.8,3.66.88,4,1.75,8,2.64,12,.44,2,.91,4,1.35,6s.86,4,1.3,6c.53,2.44,1.06,4.88,1.61,7.32.33,1.48.68,2.95,1,4.43.09.39.16.78.23,1.18.13.71-.08.92-.77.77-2.22-.48-4.44-1-6.67-1.44-1.61-.34-3.24-.64-4.85-1-1.88-.39-3.75-.81-5.63-1.21L251,280.65l-6.41-1.34-10.48-2.19ZM129,110.74v0c-.23.32-.47.65-.69,1-1.4,2.22-2.85,4.4-4.11,6.71-.34.62-.65,1.26-1,1.87-.63,1.08-1.2,2.18-1.8,3.27-1,1.71-1.81,3.47-2.6,5.26s-1.52,3.41-2.19,5.15c-.82,2.16-1.65,4.32-2.34,6.53-.08.26-.12.52-.21.77A36.75,36.75,0,0,0,113,145c-.24.86-.4,1.74-.63,2.6-.15.55-.31,1.11-.41,1.68-.21,1.27-.43,2.55-.67,3.82a7.15,7.15,0,0,0-.22,1.85,2.91,2.91,0,0,1-.08.66c-.27,1.36-.15,2.76-.44,4.12a69.23,69.23,0,0,0,.23,9.87c.21,2,.44,4,.83,5.94.3,1.44.62,2.87,1,4.29.23.81.54,1.61.73,2.43.28,1.23.91,2.33,1.17,3.55a19.94,19.94,0,0,1,.82,2c.35.68.61,1.39.92,2.08s.57,1.21.88,1.8.77,1.4,1.16,2.1c.77,1.36,1.57,2.7,2.43,4a50.29,50.29,0,0,0,4,5.35,60.41,60.41,0,0,0,5.43,5.88c.94.89,1.86,1.79,2.85,2.63.81.69,1.64,1.37,2.5,2s2.05,1.42,3.05,2.16a13.07,13.07,0,0,0,1.61,1,.64.64,0,0,0,.24,0s.1-.07.09-.08a2,2,0,0,0-.31-.57,25.74,25.74,0,0,1-1.73-2c-.59-.73-1.16-1.47-1.72-2.22s-.94-1.51-1.43-2.25a34.87,34.87,0,0,1-2.2-4c-.54-1.07-1-2.2-1.43-3.31a37.62,37.62,0,0,1-1.39-3.9,36.6,36.6,0,0,1-1-4.28A6.78,6.78,0,0,0,129,193a4.66,4.66,0,0,1-.2-1c-.09-.67-.19-1.33-.27-2s-.17-1.24-.24-1.86a69.08,69.08,0,0,1-.31-7.34,58.66,58.66,0,0,1,.43-6.24,1.79,1.79,0,0,0,0-.4c0-.81.2-1.59.26-2.39s.21-1.67.35-2.51c.18-1.09.39-2.19.59-3.29a2.36,2.36,0,0,1,.14-.65,6.28,6.28,0,0,0,.46-1.8c.07-.35.13-.71.22-1.05.3-1.12.62-2.23.92-3.34a9.24,9.24,0,0,1,.21-.91c.63-1.8,1.19-3.63,1.84-5.42a9.84,9.84,0,0,1,.94-2.19.37.37,0,0,1,.1-.07c.05,0,.12.11.12.16,0,.31-.15.6-.09.92a9.57,9.57,0,0,1,.11,1.19,17.4,17.4,0,0,0,1.14,5.34l.24.63a14.89,14.89,0,0,0,.59,1.49c.37.71.78,1.4,1.21,2.07s1,1.4,1.46,2.09a4.73,4.73,0,0,0,.31.43l.9,1c.31.32.61.66.94,1,.61.57,1.23,1.16,1.88,1.69s1.35,1,2,1.51c.47.33,1,.62,1.47.92s1.21.76,1.85,1.06c1.78.83,3.57,1.6,5.36,2.41.9.4,1.8.78,2.67,1.22,1.48.73,2.92,1.53,4.4,2.24,2.25,1.09,4.41,2.34,6.57,3.57,1.31.75,2.63,1.5,3.89,2.34.67.44,1.35.86,2.05,1.25s1.29.8,1.92,1.23,1.31.9,2,1.36l1.43,1c.62.43,1.23.87,1.84,1.32,1,.73,2,1.5,3,2.22s2.32,1.66,3.5,2.45a23.06,23.06,0,0,1,2.47,2,8.42,8.42,0,0,1,2.19,3.14,2.77,2.77,0,0,1-.2,2.32c-.12.19-.25.37-.38.55a11.85,11.85,0,0,1-2.45,2.24A41.17,41.17,0,0,1,182.7,208c-1.27.56-2.58,1-3.87,1.48a18.42,18.42,0,0,1-2.57.72c-.78.18-1.58.3-2.37.41-1.1.16-2.21.29-3.31.45-.07,0-.13.09-.2.14s.11.17.17.18a25.91,25.91,0,0,0,3.29.53c1.37.09,2.75.24,4.13.29a41.13,41.13,0,0,0,10.49-1c.66-.15,1.26-.45,1.91-.61a19.94,19.94,0,0,0,2-.74,1.39,1.39,0,0,0,.29-.26h0l.16.41c-.79.83-1.72,1.52-2.57,2.31s-1.77,1.6-2.65,2.38c.11.23.26.34.44.33.35,0,.7-.07,1.06-.09a19.45,19.45,0,0,0,4.21-.67c.17-.05.35-.07.52-.11a21.78,21.78,0,0,0,3.43-1.11,38.57,38.57,0,0,0,4.18-2.06c.94-.53,1.72-1.25,2.64-1.8.2-.44.72-.51,1-.86a10.32,10.32,0,0,1,1-.91,1.4,1.4,0,0,1,1.1-.4c2.62.16,5.25.18,7.88.1a33.61,33.61,0,0,0,9.07-1.55,14.33,14.33,0,0,0,2.46-1,20.59,20.59,0,0,0,4-2.9,24.92,24.92,0,0,0,2.29-2.42,16.18,16.18,0,0,0,1.94-2.86,10,10,0,0,0,1-3.85,3.44,3.44,0,0,0-.11-1.46,6,6,0,0,0-1.59-2.58.59.59,0,0,0-.74-.08,4.69,4.69,0,0,1-1.71.72,2,2,0,0,1-1.31-.08,3.74,3.74,0,0,1-1.92-1.39,4.89,4.89,0,0,1-.93-1.76,9.3,9.3,0,0,1-.13-1.06,3.74,3.74,0,0,1,3.41-4,2.47,2.47,0,0,1,1.05.11,9.4,9.4,0,0,1,1.92.92,8.67,8.67,0,0,1,3.87,5.84,2.44,2.44,0,0,0,.07.39c0,.07.11.15.16.15s.18-.08.19-.14a15.59,15.59,0,0,0,.44-3,3.2,3.2,0,0,1,0-.53,22.62,22.62,0,0,0,.06-5.33c-.07-.67-.11-1.34-.24-2a17.57,17.57,0,0,0-1.35-3.91c-.29-.6-.63-1.19-.86-1.81a16.48,16.48,0,0,0-.94-1.76,32.31,32.31,0,0,0-2.24-3.64,10.82,10.82,0,0,1-.65-1,29.48,29.48,0,0,0-2.35-3.41c-.63-.81-1.24-1.63-1.82-2.48-.4-.58-.79-1.18-1.24-1.72s-.8-1.07-1.21-1.6-.78-1.09-1.17-1.64-.87-1.23-1.29-1.86a19.31,19.31,0,0,1-1.21-1.92,19,19,0,0,1-1.12-2,19.34,19.34,0,0,1-1.7-3.17,30.13,30.13,0,0,1-1.77-4.32,21.15,21.15,0,0,1-1-4c0-.36-.15-.7-.21-1.05a11.81,11.81,0,0,1-.18-1.33c-.11-2.45-.32-4.89-.31-7.34a48.55,48.55,0,0,0-.53-8,25,25,0,0,0-1.06-4.28,8.09,8.09,0,0,0-1-2.18c-.12-.45-.5-.75-.67-1.15a14.42,14.42,0,0,0-1.12-1.81c-.37-.61-.75-1.21-1.16-1.8-.74-1.06-1.49-2.11-2.2-3.19a29,29,0,0,0-1.79-2.49c-1.08-1.31-2.1-2.65-3.22-3.93-1.67-1.93-3.37-3.69-5.16-5.39-1.07-1-2.18-2-3.29-2.91-1.73-1.47-3.52-2.88-5.33-4.26-.57-.43-1.19-.79-1.75-1.22a78.4,78.4,0,0,0-7.62-4.91,4.28,4.28,0,0,1-1.63-1.32c-.15-.16-.29-.34-.45-.49-1.06-1-2.08-2.08-3.11-3.13-2.2-2.27-4.62-4.31-6.91-6.49-.42-.39-.88-.74-1.33-1.1-1.14-.92-2.22-1.91-3.38-2.81s-2.15-1.74-3.24-2.58c-1.59-1.21-3.21-2.39-4.8-3.61-.81-.62-1.71-1.12-2.5-1.77-.35-.28-.77-.46-1.11-.74s-.82-.36-1.11-.73c-1.5-1-3-1.95-4.5-2.88-1.25-.76-2.54-1.46-3.83-2.17-1.09-.6-2.18-1.21-3.31-1.73s-2.08-1-3.17-1.43c-1.45-.55-2.88-1.18-4.33-1.75a2.91,2.91,0,0,0-.78-.15c-.06,0-.14.08-.19.13a.13.13,0,0,0,0,.12l1,.88.92.77a51.27,51.27,0,0,1,4,3.93c.79.84,1.48,1.77,2.31,2.58.24.24.37.59.65.83a4.94,4.94,0,0,1,.65.84c.73,1,1.5,1.88,2.21,2.85q2,2.76,3.8,5.66c1.37,2.19,2.72,4.39,3.89,6.7a27.06,27.06,0,0,1,1.83,3.7.41.41,0,0,0,.07.11,13,13,0,0,1,1.11,2.28c0,.05,0,.15-.09.22s-.08,0-.11,0a8.8,8.8,0,0,1-1.49-.87c-.85-.41-1.63-.92-2.44-1.39-1.66-1-3.37-1.81-5.07-2.67-1.4-.7-2.79-1.4-4.21-2-.53-.23-1-.5-1.56-.73s-1.14-.54-1.71-.78c-2.14-.88-4.24-1.85-6.42-2.65-1.5-.56-3-1.18-4.49-1.7s-2.86-1-4.29-1.52-2.88-.88-4.32-1.36c-1.09-.36-2.24-.54-3.32-1-1.53-.28-3-.83-4.54-1.07-.52-.08-1-.29-1.55-.39-1.22-.24-2.45-.47-3.68-.66a18.42,18.42,0,0,0-3.69-.51,11,11,0,0,0-2-.24c-.66,0-1.31-.2-2-.2-.84,0-1.69,0-2.53-.07a.17.17,0,0,0-.1.07c-.06.1-.06.18,0,.23l.59.29c.94.4,1.9.78,2.82,1.21,1.66.77,3.25,1.65,4.83,2.58,2,1.19,4,2.5,5.9,3.89,1.48,1.07,3,2.16,4.36,3.32,1.78,1.47,3.55,3,5.24,4.56,1.29,1.22,2.6,2.42,3.83,3.7.38.39.78.74,1.14,1.13a14.24,14.24,0,0,0,1.16,1.28,11.88,11.88,0,0,1,1.08,1.17c1,1.15,2,2.34,3.06,3.52a6.45,6.45,0,0,0,1,1.26,5.68,5.68,0,0,0,1,1.25,18.61,18.61,0,0,1,1.42,2.15,6,6,0,0,1-.53.39,15.39,15.39,0,0,0-1.89,1c-.72.51-1.45,1-2.21,1.46a15.78,15.78,0,0,0-1.93,1.43,13.89,13.89,0,0,1-1.4,1c-.54.32-.88.89-1.48,1.12-.61.66-1.4,1.1-2,1.72s-1.42,1.2-2.11,1.82c-1,.93-2,1.88-3,2.82-.36.34-.7.69-1.06,1a14.88,14.88,0,0,1-1.14,1.11c-.4.3-.58.8-1,1-1,1.16-2.13,2.27-3.14,3.46l-1.21,1.43a16.81,16.81,0,0,0-1.25,1.54c-.67.53-1,1.36-1.63,1.93-1.06,1.59-2.35,3-3.35,4.65a7.69,7.69,0,0,0-1,1.42c-.35.51-.76,1-1.07,1.53-1,1.69-2.06,3.32-3,5-1.16,2.1-2.27,4.24-3.3,6.41-.34.73-.61,1.48-.95,2.2-.65,1.37-1.2,2.78-1.73,4.19-.79,2.13-1.48,4.29-2.17,6.45-.17.51-.28,1-.43,1.54a.62.62,0,0,1-.15.22.17.17,0,0,1-.12,0,2.78,2.78,0,0,1-.11-.5,58,58,0,0,1,.29-6.39c-.09-.68.23-1.33.2-2a10.93,10.93,0,0,1,.23-2c.11-.84.31-1.66.45-2.5a17.15,17.15,0,0,1,.76-3.52,3,3,0,0,0,.09-.52c.06-.31.14-.61.21-.91.22-1,.57-2,.87-2.93a64.6,64.6,0,0,1,2.71-7.26c.34-.77.66-1.56,1-2.32.53-1.08,1.1-2.13,1.65-3.2a4.3,4.3,0,0,1,.24-.48c.56-.85,1-1.75,1.56-2.63,1-1.65,2-3.25,3.13-4.81a35.55,35.55,0,0,1,2.17-2.88c.78-.91,1.44-1.93,2.24-2.82,1.65-1.81,3.25-3.65,5-5.32a42.5,42.5,0,0,1,5.31-4.44c.22-.15.42-.33.63-.49a.81.81,0,0,0,.09-.1.28.28,0,0,0,0-.36,12.61,12.61,0,0,0-2.76-1.86,40.78,40.78,0,0,0-5.75-2.1c-1.47-.38-2.93-.76-4.42-1-.92-.17-1.84-.35-2.77-.45-.67-.07-1.33-.11-2-.23a2.6,2.6,0,0,0-.39-.05c-1.65-.09-3.28-.31-4.92-.36a28.66,28.66,0,0,0-6.67.32,4.71,4.71,0,0,1-.52.09,22.63,22.63,0,0,0-3.66.75,36.2,36.2,0,0,0-5.15,1.82A25,25,0,0,0,73.15,86c-.61.38-1.22.74-1.85,1.08A19.12,19.12,0,0,0,69,88.67c-.35.27-.69.56-1,.83a5.21,5.21,0,0,0-1,.87c-.52.2-.81.68-1.23,1s-.7.68-1,1-.78.74-1.14,1.12-1,1.07-1.44,1.59a21.14,21.14,0,0,0-1.34,1.66,48.5,48.5,0,0,0-5.4,8.57c-.38.8-.7,1.63-1.12,2.41-.32.59-.47,1.25-.74,1.85a1.55,1.55,0,0,0-.08.53.32.32,0,0,0,.06.24s.17,0,.22,0,.38-.37.57-.55c.87-.89,1.67-1.84,2.57-2.72s1.83-1.81,2.77-2.69a45.15,45.15,0,0,1,5.66-4.67,1.7,1.7,0,0,0,.22-.15,32.55,32.55,0,0,1,3.21-2.14A39.48,39.48,0,0,1,74,94.84a33.33,33.33,0,0,1,4.87-1.39,6.47,6.47,0,0,1,1-.2,26.93,26.93,0,0,1,5.31-.1,22.18,22.18,0,0,1,4,.61,3.33,3.33,0,0,0,1.15.31c.13,0,.26,0,.33.19a.43.43,0,0,1-.19.45l-1.29,1c-.36.26-.74.49-1.1.75s-.71.53-1.06.8a7.7,7.7,0,0,1-.74.57c-.78.45-1.36,1.15-2.12,1.62-.59.67-1.38,1.12-2,1.74s-1.33,1.17-2,1.77-1.26,1.12-1.85,1.73c-1,1-2,2.13-3,3.19-.59.61-1.07,1.31-1.67,1.9-1,1-1.62,2.12-2.59,3-.73,1.17-1.7,2.17-2.39,3.37a4.24,4.24,0,0,1-.46.65,18.06,18.06,0,0,0-1.54,2.33c-.81,1.32-1.62,2.66-2.35,4-.8,1.53-1.63,3.06-2.37,4.64-.2.44-.34.92-.56,1.35a45.11,45.11,0,0,0-1.76,4.33c-.52,1.42-.95,2.87-1.38,4.32-.25.86-.55,1.7-.73,2.57-.32,1.48-.74,2.94-1,4.44-.11.75-.22,1.5-.37,2.24a9.77,9.77,0,0,0-.31,2.52,3.84,3.84,0,0,1-.11.65,7.36,7.36,0,0,0-.12.8c-.1,1.33-.17,2.67-.29,4-.06.7-.07,1.4-.13,2.1a14.68,14.68,0,0,0,0,2c0,.71,0,1.42,0,2.11.11,1.42.15,2.83.23,4.25.13,2.05.39,4.08.67,6.12.14,1.05.36,2.1.51,3.16.18,1.24.54,2.44.72,3.68a8.31,8.31,0,0,0,.32,1.56c.47,1.4.6,2.89,1.15,4.26a.31.31,0,0,1,0,.13,4.62,4.62,0,0,0,.35,1.42c.47,1.53,1,3.06,1.48,4.58.33,1,.68,2,1,3,.63,1.81,1.36,3.58,2.07,5.36s1.6,3.77,2.47,5.62c.58,1.25,1.17,2.5,1.78,3.74s1.31,2.74,2.1,4c0,0,.13,0,.2,0s.06-.08,0-.11c-.22-.68-.44-1.35-.67-2s-.61-1.58-.83-2.4c-.15-.56-.4-1.08-.57-1.63s-.32-1.11-.48-1.67c-.09-.3-.21-.59-.29-.89-.19-.69-.36-1.38-.54-2.07s-.42-1.55-.6-2.33c-.29-1.26-.56-2.52-.83-3.79-.18-.82-.35-1.65-.52-2.48-.27-1.31-.39-2.64-.7-3.95a5.32,5.32,0,0,1-.15-1.05c-.08-1.29-.32-2.56-.45-3.85-.11-1.06-.24-2.12-.33-3.19-.1-1.29-.21-2.58-.24-3.87-.05-1.91-.05-3.83-.05-5.74s.06-3.92.25-5.87a17.09,17.09,0,0,1,.2-2.26,4.72,4.72,0,0,0,.13-1.19,4.92,4.92,0,0,1,.11-.93c.11-.61.25-1.22.32-1.84s.08-1.16.14-1.73.37-1.19.48-1.8a15.74,15.74,0,0,1,.76-3.38s0-.09,0-.14a26.56,26.56,0,0,1,.93-3.61c.63-2.09,1.45-4.11,2.14-6.18a.61.61,0,0,1,0-.12c1-2.19,2-4.38,3.11-6.51a10.05,10.05,0,0,0,.64-1.16,2.56,2.56,0,0,1,.39-.54s.1-.05.12,0,.14.11.13.17a2,2,0,0,1-.12.78,8.85,8.85,0,0,0-.52,2.07,4.83,4.83,0,0,1-.22.91,3.9,3.9,0,0,0-.22.91q-.6,3.49-1.25,7c-.1.53-.19,1.06-.28,1.58a10.51,10.51,0,0,0-.22,1.46c0,1.25-.39,2.46-.38,3.72-.24.91-.08,1.87-.38,2.77a2.17,2.17,0,0,0,0,.26c0,1.16-.12,2.31-.21,3.46-.21,2.62-.26,5.25-.31,7.87s.05,5.25.15,7.87c0,.72,0,1.43.09,2.14.23,2.4.39,4.8.72,7.19.28,2.07.56,4.15,1,6.2.19.92.43,1.83.58,2.75.26,1.68.75,3.31,1.15,5a30.26,30.26,0,0,0,1.42,4.73c.27,1.18.77,2.28,1.11,3.43.28.9.65,1.75,1,2.62.11.24.23.48.32.74a40.91,40.91,0,0,0,1.6,3.81c.5,1,1,2.12,1.49,3.14.8,1.49,1.64,3,2.5,4.42a25.83,25.83,0,0,0,2,3.16,1.49,1.49,0,0,1,.26.48,3,3,0,0,0,.47.79c.42.58.83,1.16,1.21,1.77s.91,1.08,1.29,1.68a8.55,8.55,0,0,0,.7,1c1.22,1.43,2.36,2.91,3.62,4.29s2.76,3,4.25,4.43c.88.83,1.72,1.7,2.64,2.47s1.77,1.62,2.74,2.33c.79.58,1.51,1.25,2.3,1.82,1.2.86,2.31,1.82,3.57,2.59.49.3,1,.65,1.42,1s1,.62,1.45.94c1.6,1.08,3.27,2,4.93,3,.19.11.39.21.59.31s.37.11.36,0a.6.6,0,0,0-.06-.23c-.63-.69-1.27-1.38-1.91-2.06-1.48-1.6-2.94-3.22-4.36-4.88-.84-1-1.62-2-2.46-3-1.39-1.62-2.6-3.39-3.93-5.06-.75-.94-1.38-2-2.07-3s-1.22-1.86-1.84-2.78c-1.37-2-2.64-4.13-3.83-6.27a61,61,0,0,1-2.86-5.43c-.51-.74-.72-1.63-1.21-2.38-.8-1.93-1.67-3.84-2.38-5.81-.51-1.42-1.06-2.84-1.48-4.29-.1-.34-.19-.69-.29-1-.39-1.23-.76-2.47-1-3.73s-.51-2.54-.77-3.8a45.18,45.18,0,0,1-.69-5.17,46.54,46.54,0,0,1-.1-7.83c.05-.71.08-1.43.16-2.13s.21-1.21.35-2c.1.54.3.8.36,1.18.2,1.27.41,2.55.7,3.81.34,1.43.71,2.85,1.09,4.27.45,1.68.94,3.35,1.52,5,.88,2.48,1.79,4.94,2.86,7.35,1.14,2.57,2.82,6.29,3.79,8.11s2,3.67,3.07,5.47c.71,1.19,1.52,2.3,2.34,3.41a17.58,17.58,0,0,1,1.11,1.5,8.19,8.19,0,0,0,1,1.27c.38.44.67.95,1,1.39.83,1,1.63,2,2.45,3,.56.68,1.13,1.37,1.74,2,1,1.1,2.09,2.18,3.19,3.22s2.45,2.34,3.76,3.41c1.13.94,2.25,1.89,3.39,2.83,1.75,1.44,3.61,2.75,5.49,4,1.14.78,2.29,1.53,3.48,2.24,1.34.81,2.66,1.64,4,2.41.85.48,1.77.84,2.62,1.33s1.55.7,2.28,1.13c.46.27,1,.41,1.45.68a12.4,12.4,0,0,0,1.57.72c1,.43,2.05.88,3.08,1.29,1.45.56,2.9,1.17,4.39,1.61s3,1.06,4.58,1.41a25.35,25.35,0,0,0,3,.76,1.07,1.07,0,0,1,.38.13,5.19,5.19,0,0,0,1.55.39,6.3,6.3,0,0,1,1.05.21,17.31,17.31,0,0,0,2.47.56l3.95.69a6,6,0,0,0,.93.14,14.7,14.7,0,0,1,2.38.27,7,7,0,0,0,.8.07l.8.07c.93.09,1.85.21,2.78.28s2,.13,3.07.17c1.86.07,3.71.07,5.57,0,1.42,0,2.85,0,4.27-.16,1.6-.13,3.2-.21,4.79-.43.53-.08,1.06-.18,1.6-.21,1.61-.07,3.16-.57,4.76-.7,2.09-.47,4.19-.86,6.25-1.42a21.55,21.55,0,0,1,2.34-.57,16.82,16.82,0,0,0,2.31-.64,8.3,8.3,0,0,0,1.52-.46,136.83,136.83,0,0,1,3-1.12c1.53-.48,3-1.2,4.44-1.83a2.5,2.5,0,0,0,.25-.09c.26-.16.51-.35.78-.51a.85.85,0,0,1,.36-.17c.46,0,.79-.38,1.22-.53a11.47,11.47,0,0,0,1.31-.66,13.56,13.56,0,0,1,1.44-.69,3.27,3.27,0,0,0,.94-.5,9.89,9.89,0,0,0,1.21-.82c.38-.11.65-.48,1.08-.49.11,0,.17,0,.19.15a.76.76,0,0,1,0,.26c-.31,1.3-.52,2.63-.93,3.9a12.38,12.38,0,0,1-.71,2A17.71,17.71,0,0,1,221,257a18,18,0,0,1-2.29,3.6,8.12,8.12,0,0,0-.56.75,25.74,25.74,0,0,1-1.73,2,25.15,25.15,0,0,1-3.66,3.09c-.08,0-.13.13-.2.18a15.15,15.15,0,0,1-3.25,2.09,10.72,10.72,0,0,0-1,.61.3.3,0,0,0-.16.33.25.25,0,0,0,.32.15,9.14,9.14,0,0,1,2-.41,2.91,2.91,0,0,0,.64-.18,20.31,20.31,0,0,0,2.52-.88c1-.13,1.8-.75,2.77-1a2.71,2.71,0,0,0,.61-.27,53,53,0,0,0,6.58-3.77c.61-.43,1.25-.85,1.9-1.23.27-.17.54-.3.6-.66a.44.44,0,0,1,.14-.22,14.53,14.53,0,0,1,1.09-1,33.65,33.65,0,0,0,2.87-2.6,1.9,1.9,0,0,0,.37-.38,13.38,13.38,0,0,1,1.47-1.71,34.12,34.12,0,0,0,2.33-2.91c.37-.5.72-1,1.09-1.51.23-.33.5-.62.7-1s.48-.63.69-1a16.46,16.46,0,0,0,1.21-2.07c.4-.43.54-1,.92-1.47a7.37,7.37,0,0,0,.85-1.65,4.31,4.31,0,0,1,.26-.47,7.71,7.71,0,0,0,.73-1.43,7.8,7.8,0,0,1,.35-.71,21.91,21.91,0,0,0,1.48-3.14c.16-.42.35-.82.51-1.24a26.26,26.26,0,0,0,1.42-3.73c.37-.67.4-1.47.77-2.13a7.05,7.05,0,0,0,.58-1.63c.19-.73.43-1.45.63-2.18.08-.3.14-.6.22-.9s.14-.52.24-.77a8.81,8.81,0,0,0,.6-2.32,15,15,0,0,1,.64-2.73,1.69,1.69,0,0,1,.42-.83c.05-.05.07-.22,0-.23-.39-.22-.11-.69-.34-1a1.93,1.93,0,0,0-.27-.3c-.05,0-.21,0-.23,0-.33.48-.84.79-1.21,1.23-.66.78-1.47,1.42-2.12,2.22a22.15,22.15,0,0,1-2.19,2.14c-.49.45-1,.91-1.47,1.36s-1,1-1.61,1.42-.86,1-1.46,1.34c-.37.46-.93.69-1.32,1.11a5.89,5.89,0,0,1-.78.72,10.91,10.91,0,0,0-1.45,1.17,14.38,14.38,0,0,1-1.48,1.12l-.1.09c-1.32,1.14-2.7,2.18-4.11,3.2l-2,1.49c-.9.66-1.78,1.34-2.7,2a28.91,28.91,0,0,1-4.67,2.86,5.33,5.33,0,0,0-.8.46c-1.11.75-2.34,1.26-3.51,1.91a24.46,24.46,0,0,0-2.88,1.36c-1.26.46-2.46,1.06-3.69,1.58a26.77,26.77,0,0,1-3.87,1.42c-.39.09-.75.28-1.13.39-.77.23-1.54.46-2.31.65-1.72.44-3.46.84-5.2,1.21-2,.43-4.12.75-6.19,1-1.86.26-3.72.46-5.59.58-1.11.08-2.22.17-3.34.15-.4,0-.81,0-1.21,0-2,.07-3.91,0-5.87-.06-1,0-1.95-.17-2.93-.21-.58,0-1.15-.12-1.72-.17a16.64,16.64,0,0,1-1.73-.19,5.92,5.92,0,0,0-1.45-.16,4.26,4.26,0,0,1-.8-.08l-3.43-.62a10.34,10.34,0,0,1-1.57-.29c-1.19-.4-2.45-.47-3.63-.9-1.2-.16-2.29-.7-3.48-.9-1.1-.49-2.32-.62-3.41-1.16a47.1,47.1,0,0,1-5.5-2c-1.52-.64-3-1.29-4.5-2-.6-.3-1.21-.57-1.81-.88s-1.19-.61-1.76-1-1.2-.57-1.74-1-1.15-.66-1.73-1c-1.5-.88-2.93-1.86-4.38-2.8-1.13-.73-2.16-1.57-3.25-2.35a58.34,58.34,0,0,1-4.69-3.75c-1.47-1.29-2.9-2.63-4.32-4-1.9-1.82-3.57-3.84-5.37-5.75-1.41-1.84-3-3.55-4.26-5.49-.41-.63-.86-1.25-1.3-1.86-1.13-1.55-2.14-3.17-3.12-4.82-.63-1.06-1.19-2.18-1.82-3.26a36,36,0,0,1-2-3.93c-.41-1-.87-1.95-1.24-2.95s-.7-1.73-1-2.62a52.88,52.88,0,0,1-2-6.63,26.84,26.84,0,0,1-.93-3.63c-.25-1.17-.49-2.35-.71-3.54-.12-.61-.15-1.24-.27-1.85-.34-1.75-.47-3.53-.64-5.31-.12-1.28-.14-2.57-.19-3.86a56.4,56.4,0,0,1,.07-6c.08-1.11.1-2.22.22-3.33.18-1.55.3-3.1.61-4.63.24-1.22.45-2.46.61-3.69s.57-2.43.82-3.65S93.7,148,94,147a3.91,3.91,0,0,1,.36-.63,4.37,4.37,0,0,1,0,.45c0,.26-.08.52-.11.79a18.12,18.12,0,0,0-.34,2.65,1.26,1.26,0,0,1,0,.39,8.91,8.91,0,0,0-.22,1.85c-.1,1.33-.2,2.67-.26,4,0,.85,0,1.7,0,2.54a71.81,71.81,0,0,0,.31,8.68c0,.76.14,1.51.26,2.26.22,1.41.37,2.83.53,4.24.06.49.14,1,.22,1.46s.23,1.12.31,1.7.28,1.21.33,1.84a3.52,3.52,0,0,0,.12.52l.6,2.47q.11.45.24.9a13.44,13.44,0,0,1,.37,1.42,11.83,11.83,0,0,0,.6,2.19c.43,1.07.73,2.19,1.13,3.27.9,2.42,1.84,4.82,3,7.15.6,1.25,1.23,2.47,1.88,3.69,1,1.93,2.15,3.79,3.29,5.65.72,1.18,1.56,2.27,2.35,3.41s1.72,2.49,2.68,3.66c.79,1,1.56,1.93,2.37,2.87s1.61,1.77,2.45,2.63c1.22,1.24,2.43,2.48,3.7,3.66a78,78,0,0,0,6.27,5.21c2.15,1.59,4.36,3.1,6.64,4.49a74.2,74.2,0,0,0,8.51,4.48c1.71.76,3.43,1.49,5.17,2.17,1.5.57,3,1,4.55,1.55s3.18.85,4.75,1.35c1.16.09,2.23.63,3.4.69a56.54,56.54,0,0,0,6.33,1l.27,0a6.46,6.46,0,0,0,1.58.21c.53,0,1.06.11,1.59.15q1.6.1,3.21.18c1.18.05,2.37.13,3.55.09,1.47,0,2.93-.09,4.39-.15,1.65-.08,3.29-.23,4.93-.44l3.31-.44a4.94,4.94,0,0,0,.53-.1c1.13-.2,2.27-.41,3.4-.68.74-.18,1.5-.26,2.23-.46,1.19-.34,2.41-.62,3.59-1a14.06,14.06,0,0,1,2.58-.71,2,2,0,0,0,.5-.19l.87-.33c.8-.28,1.61-.52,2.39-.84,1.53-.63,3-1.3,4.53-2,1.86-.86,3.61-1.92,5.41-2.89.9-.66,1.88-1.19,2.78-1.85.61-.46,1.27-.83,1.85-1.33a11.42,11.42,0,0,0,1.74-1.43,43.65,43.65,0,0,0,4.36-3.9c1.17-1.16,2.3-2.36,3.37-3.61a40.8,40.8,0,0,0,2.72-3.45c.28-.41.59-.79.87-1.19,0-.07.07-.16.12-.24s0-.18-.09-.21-.2,0-.25,0c-.25.18-.46.41-.72.57-1,.62-1.88,1.34-2.85,2a28.79,28.79,0,0,1-3,2c-1.18.88-2.5,1.53-3.74,2.32-.71.46-1.47.84-2.21,1.25l-2.34,1.27c-.74.4-1.48.8-2.25,1.16s-1.46.87-2.24,1.19-1.51.75-2.29,1.09c-1,.45-2,.93-3,1.36s-2.05.87-3.08,1.28c-1.9.76-3.82,1.5-5.77,2.12-1.61.51-3.23,1-4.89,1.37-.52.11-1,.25-1.56.36-1.35.29-2.7.61-4.06.83-1.76.27-3.52.54-5.3.65-.84.06-1.67.19-2.52.24-2.31.13-4.63.13-6.94.11a13.82,13.82,0,0,1-2.8-.16,16.38,16.38,0,0,1-1.72-.13,10.46,10.46,0,0,1-1.59-.19c-.57-.09-1.15-.1-1.73-.14l-.26-.05-5.67-1a4.83,4.83,0,0,1-.91-.22,9.88,9.88,0,0,0-1.42-.37,14,14,0,0,1-1.93-.49c-.55-.21-1.12-.3-1.66-.5s-1.19-.38-1.78-.57a71.88,71.88,0,0,1-9.49-3.89c-1.32-.64-2.63-1.31-3.89-2.07a11.15,11.15,0,0,1-1.38-.79c-.45-.36-1-.64-1.43-1-1-.73-1.89-1.48-2.83-2.23-.69-.56-1.36-1.16-2.05-1.71-1.5-1.2-2.91-2.49-4.28-3.83-1.91-1.86-3.76-3.77-5.49-5.81-1-1.18-2-2.41-2.93-3.63-.3-.39-.56-.81-.86-1.19a8,8,0,0,1-1.14-1.64,5.85,5.85,0,0,0-.5-.79c-.53-.72-1-1.48-1.47-2.24-.9-1.43-1.73-2.91-2.5-4.42-.16-.31-.26-.67-.44-1-.67-1.16-1.13-2.42-1.7-3.62-.38-.81-.66-1.66-1-2.5a56.13,56.13,0,0,1-2.56-8.43c-.29-1.35-.64-2.69-.83-4.06-.14-1.06-.33-2.11-.44-3.17-.17-1.6-.33-3.19-.41-4.79s-.09-2.94-.09-4.41c0-1.91.11-3.82.22-5.73,0-.67.07-1.34.16-2a7.1,7.1,0,0,0,.17-1.59,2.09,2.09,0,0,1,.07-.66c.34-1.53.53-3.08.81-4.61.16-.88.32-1.76.5-2.63.09-.44.27-.85.33-1.29.14-1,.49-1.9.7-2.85a28.2,28.2,0,0,1,.86-2.8c.29-.93.59-1.87.9-2.8.53-1.55,1.1-3.1,1.74-4.61s1.32-3.11,2.07-4.63c.47-1,1-1.91,1.46-2.86.38-.75.82-1.48,1.24-2.21a32.48,32.48,0,0,1,2.09-3.11c.88-1.18,1.8-2.32,2.74-3.45s1.89-2.23,2.92-3.28c.63-.64,1.23-1.29,1.87-1.91q.66-.66,1.38-1.26c.75-.64,1.51-1.25,2.27-1.87A.46.46,0,0,1,129,110.74Z" transform="translate(-22.74 -29.32)"></path><path class="cls-1" d="M45.37,347.06v-21.3c0-1.65-.13-1.54,1.5-1.55s3.12,0,4.69,0a17.84,17.84,0,0,1,3.72.36,30.44,30.44,0,0,1,7.17,2.11A22.69,22.69,0,0,1,67.92,330a20,20,0,0,1,4.44,5.3,23.86,23.86,0,0,1,2.77,8.19c.11.71.26,1.4.32,2.12a14.07,14.07,0,0,1-.19,4c-.12.61-.21,1.23-.32,1.84a22.07,22.07,0,0,1-2.43,6.91,18.42,18.42,0,0,1-3.64,4.77,20.9,20.9,0,0,1-4.32,3.13,29.63,29.63,0,0,1-7.63,2.8c-1.49.34-3,.51-4.48.74a3.77,3.77,0,0,1-.67,0H46.14a1.88,1.88,0,0,1-.53-.07.32.32,0,0,1-.17-.19,1.27,1.27,0,0,1-.06-.39c0-.41,0-.81,0-1.21Zm7-.05v13.67c0,.44,0,.89,0,1.33a.41.41,0,0,0,.34.36,7.67,7.67,0,0,0,2.39-.09,26.85,26.85,0,0,0,3.21-.93,17.45,17.45,0,0,0,4.79-2.62A13.11,13.11,0,0,0,67.32,353a15.83,15.83,0,0,0,1.08-7.61c-.07-.53-.16-1.05-.26-1.58a14.15,14.15,0,0,0-7.52-10.17,22,22,0,0,0-4-1.55,9.34,9.34,0,0,0-3.82-.47.43.43,0,0,0-.44.41q0,.6,0,1.2Z" transform="translate(-22.74 -29.32)"></path><path class="cls-1" d="M187.84,369.59a7.56,7.56,0,0,1-.41-.71l-2-4.37-1.86-4-.51-1.1a.42.42,0,0,0-.44-.23l-.27,0-1.71.27a12.86,12.86,0,0,1-2.4.17,2.47,2.47,0,0,0-.66.07.27.27,0,0,0-.18.18,5.27,5.27,0,0,0-.07.79v7.24c0,.4,0,.8,0,1.21a.43.43,0,0,1-.45.4l-.67,0h-4.69a4.21,4.21,0,0,1-.79-.06.46.46,0,0,1-.28-.25,1,1,0,0,1,0-.39c0-.36,0-.72,0-1.07V326c0-.4,0-.81,0-1.21s.19-.53.6-.54l.53,0c2.24,0,4.47,0,6.7,0a17.31,17.31,0,0,1,4.36.61,22.43,22.43,0,0,1,3.65,1.33,14.37,14.37,0,0,1,3,2,19.48,19.48,0,0,1,2.38,2.34,17.34,17.34,0,0,1,3.64,7.36,14.32,14.32,0,0,1,.39,3.45c0,.45,0,.9,0,1.34a13.63,13.63,0,0,1-.64,4.62,16.43,16.43,0,0,1-2.6,5.25,6,6,0,0,1-.52.61c-.81.83-1.61,1.68-2.47,2.46-.63.58-.56.6-.26,1.23,1,2.14,2.07,4.25,3.06,6.4.86,1.86,1.78,3.7,2.64,5.56.07.16.13.33.19.5a.35.35,0,0,1-.18.32,5,5,0,0,1-.52.07H188.5A5,5,0,0,1,187.84,369.59Zm.93-27.46a11.9,11.9,0,0,0-.51-3.94,7.94,7.94,0,0,0-1.17-2.54,14.25,14.25,0,0,0-1.8-2.15,9.15,9.15,0,0,0-6.49-2.74c-1.59-.08-1.51-.16-1.51,1.51v19.42c0,.31,0,.63,0,.94s.16.57.56.58a12.22,12.22,0,0,0,1.6,0,10.22,10.22,0,0,0,5-2.1,17.15,17.15,0,0,0,1.46-1.37,8.5,8.5,0,0,0,2.09-3.23A10.69,10.69,0,0,0,188.77,342.13Z" transform="translate(-22.74 -29.32)"></path><path class="cls-1" d="M116.5,362.53c-.45,1.14-.64,2.38-1,3.57a26.06,26.06,0,0,1-1,3.48,3.34,3.34,0,0,1-.52.09h-5.76a1.06,1.06,0,0,1-.39-.09.27.27,0,0,1-.14-.19,1.53,1.53,0,0,1,0-.52c.36-1.38.72-2.76,1.09-4.14s.83-3,1.24-4.52c.59-2.15,1.16-4.31,1.74-6.46q1.41-5.31,2.83-10.6c.66-2.46,1.34-4.91,2-7.36.41-1.51.8-3,1.21-4.53s.89-3.27,1.34-4.9c.14-.52.26-1,.39-1.56,0-.13.07-.26.11-.39a.65.65,0,0,1,.7-.49h3c.58,0,.73.16.86.64.38,1.43.76,2.85,1.15,4.27.46,1.72,1,3.44,1.41,5.16s.82,3.2,1.25,4.79c.38,1.42.79,2.84,1.18,4.26l1.08,4c.54,2,1.09,4,1.63,6.07q1.41,5.29,2.83,10.6c.38,1.43.8,2.84,1.19,4.26.12.43.21.86.3,1.3,0,.15-.13.35-.3.37a2.06,2.06,0,0,1-.26,0h-5.77l-.26,0a.47.47,0,0,1-.39-.32c-.24-.82-.47-1.63-.69-2.45-.35-1.29-.7-2.58-1-3.88-.12-.46-.34-.56-.76-.58h-.54c-2.86,0-5.72,0-8.58,0A2.51,2.51,0,0,0,116.5,362.53Zm5.44-21.33c-.09.19-.17.3-.21.42-.16.56-.33,1.11-.46,1.68-.45,1.86-.88,3.73-1.33,5.59s-.87,3.55-1.3,5.33a4.62,4.62,0,0,0-.06.65c0,.11,0,.19.14.2a3.76,3.76,0,0,0,.65.09h5.09a4.55,4.55,0,0,0,.53,0,.39.39,0,0,0,.27-.39c0-.13,0-.27-.07-.4l-1.41-5.84c-.3-1.26-.61-2.52-.9-3.77-.23-1-.43-1.92-.66-2.87A3.8,3.8,0,0,0,121.94,341.2Z" transform="translate(-22.74 -29.32)"></path><path class="cls-1" d="M201.17,346.91V325.33c0-.94.06-1,1.09-1h18.22l1.21.05a.46.46,0,0,1,.36.34,2.6,2.6,0,0,1,0,.39c0,1.84,0,3.67,0,5.5a.84.84,0,0,1-.06.39c0,.11-.17.24-.27.25-.4,0-.8,0-1.2,0H209.72c-.4,0-.8,0-1.2,0a.41.41,0,0,0-.34.36c0,.22,0,.45,0,.67v14.47c0,.22,0,.45,0,.67a.39.39,0,0,0,.33.36c.4,0,.8,0,1.2,0h10.72c1.83,0,1.69-.17,1.69,1.63v4.29a5.27,5.27,0,0,1-.07.79c0,.07-.11.15-.18.19a.71.71,0,0,1-.26.06H209.41c-1.26,0-1.27,0-1.27,1.24v5.36c0,.27,0,.54,0,.81a.48.48,0,0,0,.45.41l1.2,0h11.66a1.24,1.24,0,0,1,.38.09.39.39,0,0,1,.17.19,2.32,2.32,0,0,1,.07.52c0,1.75,0,3.49,0,5.23a.57.57,0,0,1,0,.13c0,.51-.15.66-.61.67H202.32c-.26,0-.53,0-.79-.05a.33.33,0,0,1-.29-.24,1,1,0,0,1-.06-.4c0-.4,0-.8,0-1.2Z" transform="translate(-22.74 -29.32)"></path><path class="cls-1" d="M81.07,346.91v-21c0-1.64-.12-1.56,1.49-1.56h18c.35,0,.71,0,1.07,0a.45.45,0,0,1,.36.34,2.73,2.73,0,0,1,0,.4q0,2.75,0,5.49a.89.89,0,0,1-.06.4.49.49,0,0,1-.26.25,9.58,9.58,0,0,1-1.07,0H90c-2.19,0-1.94-.28-2,1.9,0,4.38,0,8.76,0,13.13,0,.41,0,.81,0,1.21a.4.4,0,0,0,.35.34,2.58,2.58,0,0,0,.4,0h11.52l1.2,0a.43.43,0,0,1,.38.33c0,.13,0,.26,0,.39,0,1.83,0,3.67,0,5.5a1,1,0,0,1,0,.39c0,.11-.15.26-.25.27a7.54,7.54,0,0,1-1.06.06h-11c-.4,0-.8,0-1.2.05a.4.4,0,0,0-.34.35,4.9,4.9,0,0,0,0,.54v6a1.87,1.87,0,0,0,.05.53.46.46,0,0,0,.27.26,2.44,2.44,0,0,0,.66.08h11.52c.36,0,.71,0,1.07,0a.49.49,0,0,1,.34.37,2.45,2.45,0,0,1,0,.27v5.49a.85.85,0,0,1-.07.39.42.42,0,0,1-.28.24,9.47,9.47,0,0,1-1.07.05H82.23l-.67,0a.47.47,0,0,1-.46-.4c0-.13,0-.27,0-.4,0-.4,0-.8,0-1.21Z" transform="translate(-22.74 -29.32)"></path><path class="cls-1" d="M141.86,346.84q0-10.45,0-20.91c0-.45,0-.89,0-1.34a.41.41,0,0,1,.35-.34l.4,0c2.32,0,4.65-.05,7,0a15.29,15.29,0,0,1,6.44,1.61,15,15,0,0,1,4.12,2.94,16.33,16.33,0,0,1,3.44,5.06,12.93,12.93,0,0,1,1.11,4.67,5.29,5.29,0,0,0,.08.79,6.39,6.39,0,0,1,0,2c-.05.35-.08.71-.1,1.06a15.94,15.94,0,0,1-1.55,6.32,11.49,11.49,0,0,1-2.75,3.76,16.71,16.71,0,0,1-2.6,1.88,17.26,17.26,0,0,1-5.71,2.19,29,29,0,0,1-2.91.4.41.41,0,0,0-.34.36c0,.4,0,.8,0,1.21,0,3.17,0,6.34,0,9.51,0,.4,0,.8,0,1.21a.39.39,0,0,1-.35.33l-.27,0h-5.63l-.26,0a.47.47,0,0,1-.4-.46c0-.44,0-.89,0-1.34v-20.9ZM149,350a6.24,6.24,0,0,0,2.5-.23,8.75,8.75,0,0,0,3.71-1.77,9.38,9.38,0,0,0,3.43-5.28,11.09,11.09,0,0,0,.14-3.59,9.46,9.46,0,0,0-2.07-4.85,8.6,8.6,0,0,0-1.35-1.48,9.75,9.75,0,0,0-5.11-2.14,6.25,6.25,0,0,0-1.06,0,.4.4,0,0,0-.34.36c0,.18,0,.36,0,.53v17.54a4.92,4.92,0,0,0,0,.67A.67.67,0,0,0,149,350Z" transform="translate(-22.74 -29.32)"></path><path class="cls-1" d="M257.46,362.6c0-1.11,0-2.23,0-3.35,0-.07.07-.15.12-.21a.16.16,0,0,1,.24,0,4.36,4.36,0,0,1,.4.35,15.07,15.07,0,0,0,7.18,3.94,8,8,0,0,0,4.75-.18,6.28,6.28,0,0,0,1.95-1.15,7.06,7.06,0,0,0,2.64-5.21,7.64,7.64,0,0,0-.13-2.13,5,5,0,0,0-1.75-2.78,23.47,23.47,0,0,0-3.92-2.54c-1.06-.57-2.14-1.11-3.2-1.68a21.67,21.67,0,0,1-4.34-2.88,11.52,11.52,0,0,1-3.25-4.51,9.26,9.26,0,0,1-.55-2.19c-.05-.36-.09-.71-.13-1.06a5.08,5.08,0,0,1,0-.67,12.53,12.53,0,0,1,2.28-6.34,13.78,13.78,0,0,1,4.86-4.11,15.72,15.72,0,0,1,3.25-1.22,10.21,10.21,0,0,1,2.64-.38h1.07a12.13,12.13,0,0,1,5.54,1.33c.48.23.94.5,1.4.77a.67.67,0,0,1,.31.57c0,.17,0,.35,0,.53,0,1.47,0,2.95,0,4.42v.4c0,.45-.21.58-.57.4l-2.5-1.29-.6-.29a8.15,8.15,0,0,0-6.63-.23,6.81,6.81,0,0,0-3.9,3.83,5.25,5.25,0,0,0-.18,3.16,4.23,4.23,0,0,0,1.28,2.3,12.22,12.22,0,0,0,1.24,1,34.64,34.64,0,0,0,4.22,2.32c1.19.61,2.4,1.19,3.59,1.8a14.18,14.18,0,0,1,3.47,2.48,10.88,10.88,0,0,1,2.07,2.61,10.16,10.16,0,0,1,.93,2.21,14.23,14.23,0,0,1,.53,4.9,8,8,0,0,1-.19,1.19,13.06,13.06,0,0,1-3.43,6.4,15.41,15.41,0,0,1-6.8,4.09,10.41,10.41,0,0,1-3,.45h-2.14a12.8,12.8,0,0,1-5.92-1.46c-.76-.38-1.45-.88-2.18-1.31a1.14,1.14,0,0,1-.62-1.09c0-1.07,0-2.15,0-3.22Z" transform="translate(-22.74 -29.32)"></path><path class="cls-1" d="M227.58,362.69c0-1,0-2.05,0-3.08a1.55,1.55,0,0,1,.1-.52s.18-.1.22-.08a9,9,0,0,1,.79.72,7.85,7.85,0,0,0,1.34,1.1,16.38,16.38,0,0,0,5.31,2.46,8.78,8.78,0,0,0,4,.14,6.69,6.69,0,0,0,4.06-2.62,8.57,8.57,0,0,0,1.34-2.75,2.09,2.09,0,0,0,.13-.65c0-.76,0-1.52,0-2.28a4.12,4.12,0,0,0-.73-2,5.63,5.63,0,0,0-1.26-1.37,30.82,30.82,0,0,0-4.78-2.94c-1.43-.74-2.85-1.47-4.22-2.32a16.18,16.18,0,0,1-3.32-2.69,10.23,10.23,0,0,1-2.68-5,10,10,0,0,1,.1-4.75,12.33,12.33,0,0,1,3.52-5.9,14.1,14.1,0,0,1,3-2.16,15.32,15.32,0,0,1,3-1.19,11.66,11.66,0,0,1,3.42-.51h.67a11.59,11.59,0,0,1,5.55,1.29c2.12,1.06,1.75.59,1.79,2.9,0,1.11,0,2.23,0,3.35,0,.26,0,.53-.06.8,0,.09-.22.21-.31.16L246,331.54l-.72-.36a8.1,8.1,0,0,0-6.74-.24,6.77,6.77,0,0,0-3.92,4,4.53,4.53,0,0,0-.25,2.24,4.63,4.63,0,0,0,1.27,2.88,10.33,10.33,0,0,0,1.43,1.2,33.91,33.91,0,0,0,4.22,2.32c1.19.61,2.4,1.18,3.59,1.8a14.33,14.33,0,0,1,3.56,2.58,12.27,12.27,0,0,1,1.83,2.29,10.62,10.62,0,0,1,1.16,2.84,8.89,8.89,0,0,1,.37,2.91,1.13,1.13,0,0,0,0,.26,10.43,10.43,0,0,1-.78,4.58,11.43,11.43,0,0,1-.95,1.92,14.73,14.73,0,0,1-7.81,6.2,12,12,0,0,1-4.33.74c-.89,0-1.78,0-2.67-.05a12.82,12.82,0,0,1-6.14-2.1c-1.82-1.19-1.57-.63-1.59-2.84v-2Z" transform="translate(-22.74 -29.32)"></path><path class="cls-1" d="M33.06,346.78v-21c0-1.64-.13-1.54,1.49-1.55H39l.53,0a.51.51,0,0,1,.37.34c0,.14,0,.27,0,.4v42.71c0,.4,0,.8,0,1.2s-.15.66-.62.67H34.06a2.9,2.9,0,0,1-.66-.06.52.52,0,0,1-.28-.25,1,1,0,0,1,0-.39c0-.4,0-.8,0-1.21Z" transform="translate(-22.74 -29.32)"></path><path class="cls-1" d="M246.34,408.06c-.22-.34-.46-.67-.65-1q-3.78-6.63-7.55-13.25a2.17,2.17,0,0,0-.31-.42s-.08,0-.12,0-.1,0-.12.05a1.21,1.21,0,0,0-.08.25c0,.4,0,.81,0,1.21v11.65c0,.4,0,.8-.05,1.2a.44.44,0,0,1-.35.35l-.13,0h-3a.45.45,0,0,1-.43-.42c0-.36,0-.72,0-1.07V384.5c0-1.65-.12-1.52,1.51-1.52h1.61a.67.67,0,0,1,.65.38c.43.78.87,1.55,1.29,2.34,1.65,3,3.28,6,4.93,9.05.47.86.95,1.71,1.43,2.56a.15.15,0,0,0,.12.05c.07,0,.17-.09.17-.14,0-.4,0-.81,0-1.21V384.36c0-1.62-.11-1.54,1.51-1.54h1.61c.65,0,.72.22.75.7,0,.31,0,.63,0,.94v22.1c0,.35,0,.71,0,1.07a.47.47,0,0,1-.41.45A14,14,0,0,1,246.34,408.06Z" transform="translate(-22.74 -29.32)"></path><path class="cls-1" d="M97.2,392.79l.63.31c.28.13.57.26.85.41a7.25,7.25,0,0,1,3.62,5.19,6.35,6.35,0,0,1,0,2.38,11.23,11.23,0,0,1-.93,3.19,6.33,6.33,0,0,1-3.86,3.29,10.38,10.38,0,0,1-3.41.56H88.22a5.81,5.81,0,0,1-.93-.06.48.48,0,0,1-.27-.24,1.05,1.05,0,0,1-.07-.4c0-.35,0-.71,0-1.07q0-10.83,0-21.68c0-.44,0-.89,0-1.33a.38.38,0,0,1,.36-.33c1.92,0,3.83,0,5.75,0a5.86,5.86,0,0,1,2.08.46,5.28,5.28,0,0,1,3.24,4.12,7.13,7.13,0,0,1,.06,2.26,3.85,3.85,0,0,1-.5,1.51C97.72,391.82,97.47,392.28,97.2,392.79Zm-6.31,7.09v2.54q0,.93,0,1.86a.4.4,0,0,0,.41.43c.84,0,1.69,0,2.54,0a5.11,5.11,0,0,0,2.51-.81A3.92,3.92,0,0,0,98,402a5.8,5.8,0,0,0,.15-3.92A3.66,3.66,0,0,0,96,395.67a7.06,7.06,0,0,0-3.1-.69c-.4,0-.8,0-1.2,0-.14,0-.27,0-.4,0a.4.4,0,0,0-.37.32c0,.26,0,.53,0,.8Zm0-10.48h0c0,.94,0,1.87,0,2.81a.36.36,0,0,0,.44.36,7.09,7.09,0,0,0,1-.21,2.75,2.75,0,0,0,1.92-1.89,4.45,4.45,0,0,0,.13-1.46,2.64,2.64,0,0,0-1.68-2.37,3.67,3.67,0,0,0-1.42-.32.43.43,0,0,0-.44.41C90.91,387.62,90.92,388.51,90.92,389.4Z" transform="translate(-22.74 -29.32)"></path><path class="cls-1" d="M202.71,395.47v11.39c0,1.24,0,1.27-1.25,1.26l-2.28-.05a.43.43,0,0,1-.35-.34c0-.41,0-.81,0-1.21V399c0-.27,0-.53,0-.8,0-.6-.13-.74-.68-.74h-7.23a1,1,0,0,0-.4,0,.46.46,0,0,0-.27.24,7.68,7.68,0,0,0-.06,1.07q0,3.81,0,7.64c0,.35,0,.71,0,1.07s-.18.54-.58.56h-.27c-2.32.05-2.8,0-2.88-.19a8.13,8.13,0,0,1-.15-2.78c0-6.88,0-13.75,0-20.63,0-1.81-.14-1.7,1.64-1.69.62,0,1.25,0,1.87,0a.4.4,0,0,1,.36.34c0,.4,0,.8,0,1.2,0,2.64,0,5.27,0,7.91,0,1.25,0,1.29,1.22,1.29h6.3a5.29,5.29,0,0,0,.8-.05.31.31,0,0,0,.27-.26c0-.35.07-.71.07-1.06v-7.77c0-.4,0-.81.05-1.21a.46.46,0,0,1,.34-.36.65.65,0,0,1,.13,0h2.94a.46.46,0,0,1,.44.42c0,.4,0,.8,0,1.21Z" transform="translate(-22.74 -29.32)"></path><path class="cls-1" d="M280.32,400.66c0,1.83,0,3.66,0,5.49a7.15,7.15,0,0,1-.05.93.52.52,0,0,1-.23.3,3.89,3.89,0,0,1-1.38.5,10.3,10.3,0,0,1-2.65.34c-.22,0-.44,0-.67,0a11,11,0,0,1-4.7-.88,12.54,12.54,0,0,1-3.51-2.17,16,16,0,0,1-1.68-1.71,8.39,8.39,0,0,1-.89-1.17,12.45,12.45,0,0,1-1.69-4.2,8.87,8.87,0,0,1-.12-4,9.65,9.65,0,0,1,.94-3.61,10,10,0,0,1,2.08-3.09,19.52,19.52,0,0,1,2.15-2,11.3,11.3,0,0,1,2.68-1.48,13.78,13.78,0,0,1,5.23-1,12.44,12.44,0,0,1,4.05.78.6.6,0,0,1,.42.61c0,1.12,0,2.23,0,3.35a.33.33,0,0,1-.48.28l-.12-.05-.24-.11a8.28,8.28,0,0,0-3.08-.85,8.44,8.44,0,0,0-6.05,1.61,8.53,8.53,0,0,0-3,4,7.34,7.34,0,0,0-.5,2.62c0,.22,0,.45,0,.67a7.63,7.63,0,0,0,2.39,5.76,9,9,0,0,0,2.43,1.85,8.85,8.85,0,0,0,4.55.83,1.34,1.34,0,0,0,.52-.14.65.65,0,0,0,.25-.27,1.07,1.07,0,0,0,.05-.4v-5.36s0-.09,0-.13a.48.48,0,0,0-.48-.52l-1.34,0a1.88,1.88,0,0,1-.53-.07.38.38,0,0,1-.24-.27,7.15,7.15,0,0,1-.05-.93c0-.71,0-1.43,0-2.14a.47.47,0,0,1,.43-.43l.94,0h3.62a2.44,2.44,0,0,1,.66.08.4.4,0,0,1,.24.28,7.55,7.55,0,0,1,.07,1.06C280.33,396.91,280.32,398.78,280.32,400.66Z" transform="translate(-22.74 -29.32)"></path><path class="cls-1" d="M58,391.51c0-2.41,0-4.82,0-7.23,0-.36,0-.72,0-1.07a.4.4,0,0,1,.36-.34h3.07a.44.44,0,0,1,.35.35c0,.45,0,.89,0,1.34,0,4.64,0,9.28,0,13.92a11.81,11.81,0,0,0,.3,2.52,6.57,6.57,0,0,0,.39,1.13,3.27,3.27,0,0,0,3.3,2,3.9,3.9,0,0,0,1.8-.48,3.14,3.14,0,0,0,1.35-1.61,8,8,0,0,0,.59-2.73c0-.62,0-1.25,0-1.87v-13c0-.4,0-.81,0-1.21a.48.48,0,0,1,.45-.42h2.94a.46.46,0,0,1,.45.41c0,.31,0,.63,0,.94,0,4.91,0,9.82,0,14.73a12.72,12.72,0,0,1-.92,4.83,6.66,6.66,0,0,1-3.79,3.75,7.74,7.74,0,0,1-3.26.6,8,8,0,0,1-4.15-1.31,6.76,6.76,0,0,1-2.42-3,10.25,10.25,0,0,1-.82-3.22c-.07-.76-.1-1.51-.11-2.27C57.94,396.06,58,393.78,58,391.51Z" transform="translate(-22.74 -29.32)"></path><path class="cls-1" d="M31.67,395.46V384.09c0-1.24,0-1.27,1.25-1.27.58,0,1.16,0,1.74,0a11.82,11.82,0,0,1,2.66.24,8.2,8.2,0,0,1,5.24,3.17,8.64,8.64,0,0,1,1.85,4.37,9.17,9.17,0,0,1,0,2.51,16.83,16.83,0,0,1-.41,2.23,7.33,7.33,0,0,1-3.63,4.42A8.88,8.88,0,0,1,36.32,401l-.27,0a.61.61,0,0,0-.44.45c0,.36,0,.71,0,1.07,0,1.56,0,3.12,0,4.68a2.84,2.84,0,0,1-.1.65c0,.08-.11.14-.18.18a.55.55,0,0,1-.25.07H32.09a.43.43,0,0,1-.37-.33c0-.4,0-.8,0-1.2Q31.67,401,31.67,395.46Zm9.49-3.56a5.43,5.43,0,0,0-1.67-4,5.1,5.1,0,0,0-3.22-1.47.66.66,0,0,0-.14,0,.46.46,0,0,0-.54.45c0,.22,0,.44,0,.66V396c0,.22,0,.44,0,.66a.47.47,0,0,0,.49.51,3.43,3.43,0,0,0,1.31-.17,5.86,5.86,0,0,0,2.79-2A4.82,4.82,0,0,0,41.16,391.9Z" transform="translate(-22.74 -29.32)"></path><path class="cls-1" d="M159.34,406.36c-.06-1.27,0-2.47,0-3.68a.33.33,0,0,1,.12-.21c.14-.11.25,0,.34.09a8.1,8.1,0,0,0,1.27,1,9.37,9.37,0,0,0,2.05,1,5.72,5.72,0,0,0,1.18.22c.26,0,.53,0,.8,0a3.63,3.63,0,0,0,3.47-2.46,4.66,4.66,0,0,0,.27-1.82,3.13,3.13,0,0,0-1.47-2.43,21.59,21.59,0,0,0-2.42-1.42l-1.88-1a8.81,8.81,0,0,1-2.45-2.05,5,5,0,0,1-1.17-2.53,5.93,5.93,0,0,1,.76-4.11,7.7,7.7,0,0,1,4-3.22,8.44,8.44,0,0,1,3.82-.41,6.25,6.25,0,0,1,2.86,1.05.51.51,0,0,1,.26.44,16,16,0,0,1,0,2.94c0,.05-.14.14-.19.12a2.87,2.87,0,0,1-.62-.22,12.42,12.42,0,0,0-1.55-.77,4.66,4.66,0,0,0-3.52.12,3.67,3.67,0,0,0-1.85,1.85,2.74,2.74,0,0,0,.79,3.38,11.7,11.7,0,0,0,2.41,1.43c.64.32,1.29.61,1.93.93a9,9,0,0,1,2.65,2,4.93,4.93,0,0,1,1,1.56,6.75,6.75,0,0,1,.54,3.4,6.56,6.56,0,0,1-1.05,3,8.17,8.17,0,0,1-7.69,3.69A8,8,0,0,1,159.34,406.36Z" transform="translate(-22.74 -29.32)"></path><path class="cls-1" d="M119.74,393.68c0,3.12,0,6.25,0,9.37,0,1.27,0,1.28,1.24,1.28h6c.36,0,.71,0,1.07.06a.43.43,0,0,1,.34.35c0,.05,0,.09,0,.14v2.67c0,.39-.18.54-.6.56H117a5.39,5.39,0,0,1-.8-.06.3.3,0,0,1-.26-.26,7,7,0,0,1-.06-.79c0-1.61,0-3.22,0-4.82,0-5.89,0-11.78,0-17.67,0-1.66-.14-1.54,1.48-1.54h1.88c.31,0,.47.18.48.52s0,.8,0,1.2Z" transform="translate(-22.74 -29.32)"></path><path class="cls-1" d="M145.9,395.59v11.25c0,1.25,0,1.29-1.23,1.28-.72,0-1.43,0-2.15,0-.37,0-.54-.19-.55-.6s0-.62,0-.93q0-11.13,0-22.25c0-.35,0-.71,0-1.07a.44.44,0,0,1,.33-.37l.13,0c.94,0,1.87,0,2.81,0,.44,0,.62.23.63.69s0,.71,0,1.07Z" transform="translate(-22.74 -29.32)"></path><path class="cls-1" d="M216.26,395.46V384.75c0-.31,0-.62,0-.93,0-.91.08-1,1-1,.76,0,1.52,0,2.28,0,.43,0,.61.22.62.69,0,.31,0,.62,0,.93v22.08c0,.4,0,.8,0,1.2a.4.4,0,0,1-.36.34h-3.07a.47.47,0,0,1-.41-.46c0-.4,0-.8,0-1.2C216.25,402.77,216.26,399.11,216.26,395.46Z" transform="translate(-22.74 -29.32)"></path><path class="cls-1" d="M201.06,169.16a.71.71,0,0,1-.75-.09c-.29-.27-.59-.53-.88-.81-.64-.62-1.26-1.27-1.92-1.86-1.07-1-2.17-1.86-3.28-2.75s-2-1.49-3-2.21-2.15-1.44-3.24-2.12c-2.05-1.27-4.14-2.46-6.25-3.63-1.44-.8-2.9-1.56-4.33-2.38s-3.12-1.72-4.62-2.67a35,35,0,0,1-6.84-5.53,12.86,12.86,0,0,1-1.78-2.17c-.43-.73-1-1.36-1.4-2.11a18,18,0,0,1-1.74-4.47c-.31-1.39-.68-2.77-.94-4.17-.07-.4-.14-.79-.17-1.19a31.91,31.91,0,0,1,0-5.08c.05-.57.19-1.14.29-1.71a3.16,3.16,0,0,0,.09-1.06A2.39,2.39,0,0,0,160,123a5.94,5.94,0,0,0-2.26-.12c-.7.09-1.4.27-2.09.42l-.13,0c-.66.37-1.36.66-2,1a16.18,16.18,0,0,0-1.74,1.19,35.47,35.47,0,0,0-2.83,2.65,8.83,8.83,0,0,0-.68.81,36.29,36.29,0,0,0-2.8,3.73c-.43.68-.86,1.35-1.27,2a.32.32,0,0,1-.44.15l0,0c.12-.65.19-1.32.35-2s.41-1.35.66-2c.38-1,.72-2.09,1.15-3.12a33.63,33.63,0,0,1,2.18-4.27,19,19,0,0,1,1.7-2.38,19.79,19.79,0,0,1,2.78-2.86c.7-.56,1.43-1.07,2.14-1.6a15.43,15.43,0,0,1,3.78-2,16.06,16.06,0,0,1,2.81-.79s.06,0,.06-.08a.25.25,0,0,0,0-.13.13.13,0,0,0-.1-.08,14.49,14.49,0,0,0-2.36-.37,21.61,21.61,0,0,0-3.6.16,18.93,18.93,0,0,0-4.12,1.07,26,26,0,0,0-3.25,1.53,31.18,31.18,0,0,0-3.11,2c-1.25.94-2.34,2.06-3.55,3a.43.43,0,0,0-.09.1,5.63,5.63,0,0,1-.83.86,16.35,16.35,0,0,0-1.27,1.36c-1,1.18-1.94,2.32-2.82,3.55-.62.86-1.24,1.73-1.8,2.64a.86.86,0,0,1-.58.5l0,0a1.73,1.73,0,0,1,.15-.78,66.55,66.55,0,0,1,2.93-6.15,33,33,0,0,1,3.16-4.94,27.12,27.12,0,0,1,2.27-3,9,9,0,0,1,.73-.78,33.18,33.18,0,0,1,2.45-2.44A31.55,31.55,0,0,1,150,109a26.39,26.39,0,0,1,6.19-2.46,23.66,23.66,0,0,1,4.51-.55c.45,0,.89,0,1.34,0a19.48,19.48,0,0,1,4.36.59,1.16,1.16,0,0,1,.79.52c-.06.14-.11.31-.19.47-.4.84-.81,1.68-1.21,2.51a3.58,3.58,0,0,0-.24.48c-.33,1-.81,2-1.16,3-.47,1.34-1,2.68-1.29,4.06-.38,1.56-.77,3.12-1,4.7-.05.31-.07.62-.09.93s0,.45,0,.67a28.48,28.48,0,0,0,0,6.26,25.46,25.46,0,0,0,.92,4.58,18.46,18.46,0,0,0,.66,1.75,20.37,20.37,0,0,0,2.87,4.95,33.64,33.64,0,0,0,3.32,3.64,50,50,0,0,0,4.18,3.5,69,69,0,0,0,6.08,4.12c1.18.72,2.33,1.48,3.51,2.21s2.19,1.36,3.29,2a52.53,52.53,0,0,1,5,3.47c.18.14.37.24.55.38a43.2,43.2,0,0,1,4.65,4c1,1,1.85,2.16,2.88,3.14a5.39,5.39,0,0,0,.93,1.14,1.23,1.23,0,0,0,.23.11Z" transform="translate(-22.74 -29.32)"></path><path class="cls-1" d="M200,140.51s0,.1-.06.11-.18.07-.22,0a5.3,5.3,0,0,1-.52-.42c-1-.82-2-1.61-3-2.5a15.92,15.92,0,0,0-1.36-1.06,2.56,2.56,0,0,0-1.6-.57c-.8,0-1.6-.07-2.4-.11a4.89,4.89,0,0,1-.54,0,6.27,6.27,0,0,1-2.74-1,9.73,9.73,0,0,1-3.09-2.9c-.32-.48-.7-.92-1-1.42a21.09,21.09,0,0,1-1-1.89,22.62,22.62,0,0,1-1.36-3.48c-.53-1-.66-2.21-1.12-3.28a1.68,1.68,0,0,1-.07-.39c0-.13.15-.28.25-.24.9.39,1.8.75,2.69,1.16s2,1,3,1.43a31,31,0,0,1,6.23,3.86,12.74,12.74,0,0,1,1.38,1.27,25.25,25.25,0,0,1,3.83,5.12,37.9,37.9,0,0,1,2.6,6A1.18,1.18,0,0,1,200,140.51Z" transform="translate(-22.74 -29.32)"></path><path class="cls-1" d="M213.1,141.26c-.18,0-.37,0-.47-.17-.36-.71-.74-1.42-1.07-2.15-1.05-2.31-2-4.65-2.86-7.05-.15-.46-.32-.92-.48-1.39a61.89,61.89,0,0,1-2.16-8.12c-.28-1.44-.49-2.9-.68-4.36a2.64,2.64,0,0,0-.47-1.22c-.61-.88-1.2-1.76-1.81-2.63-.89-1.28-1.69-2.61-2.5-3.94-.58-1-1.11-1.93-1.67-2.89-1-1.66-1.83-3.37-2.75-5s-1.76-3.59-2.75-5.33a10.21,10.21,0,0,1-.53-1.22,1.75,1.75,0,0,1,0-.4l0,0a1.68,1.68,0,0,1,.4.35,7.63,7.63,0,0,0,.91,1.13c.3.38.5.86.82,1.21.73.79,1.28,1.71,2,2.51.48.53.88,1.12,1.31,1.69.57.74,1.11,1.51,1.71,2.23,1.36,1.63,2.68,3.31,4.07,4.93,1.1,1.28,2.2,2.56,3.37,3.78a20.18,20.18,0,0,0,3.07,2.77.55.55,0,0,1,.24.7,7.86,7.86,0,0,0-.52,2.34c0,.75-.19,1.49-.24,2.25s-.09,1.5-.1,2.26c0,1.11,0,2.21.07,3.32a21.55,21.55,0,0,0,.2,2.54c.28,1.67.47,3.35.87,5a42.25,42.25,0,0,0,2.07,6.88Z" transform="translate(-22.74 -29.32)"></path><path class="cls-1" d="M149.7,77.27a.61.61,0,0,1-.07.1.24.24,0,0,1-.11.06,1.28,1.28,0,0,1-.27,0,13.28,13.28,0,0,0-4.05.63c-.69.2-1.3.58-2,.77a19.7,19.7,0,0,0-2.95,1.8s-.12,0-.13,0-.11-.16-.09-.21c.1-.25.21-.49.33-.73A54.34,54.34,0,0,1,143.09,75a4.52,4.52,0,0,1,.55-.75.38.38,0,0,1,.36-.08,4.69,4.69,0,0,1,.72.33l3.19,1.69a10.67,10.67,0,0,1,1.76,1S149.69,77.23,149.7,77.27Z" transform="translate(-22.74 -29.32)"></path><path class="cls-1" d="M126.47,74.27a.58.58,0,0,1-.06-.51,10.12,10.12,0,0,1,.57-1.35q1.17-2.18,2.39-4.32a4.86,4.86,0,0,1,.42-.53c.2.06.37.1.53.16,1.86.76,3.67,1.61,5.49,2.44,0,0,.07.09.06.11a.37.37,0,0,1-.13.17.8.8,0,0,1-.26,0c-.4.05-.8.11-1.2.13a11.51,11.51,0,0,0-3.47.93,16.09,16.09,0,0,0-3.27,1.81,12.39,12.39,0,0,0-1.12.94Z" transform="translate(-22.74 -29.32)"></path><path class="cls-1" d="M154.59,60a41.42,41.42,0,0,0,3.27,2.57c.52.42,1.1.75,1.6,1.2a1.83,1.83,0,0,1,.18.35L158,63.91a12.62,12.62,0,0,0-2.37,0,17.78,17.78,0,0,0-5.64,1.5,1.7,1.7,0,0,1-.37.1s-.1-.06-.09-.07a1.55,1.55,0,0,1,.21-.49,33.41,33.41,0,0,1,3.49-3.84A4,4,0,0,1,154.59,60Z" transform="translate(-22.74 -29.32)"></path><path class="cls-1" d="M165.43,73.7l-3,.32a21.25,21.25,0,0,0-2.18.58s-.08,0-.1-.08a.15.15,0,0,1,0-.11,1.28,1.28,0,0,1,.46-.63c.76-.54,1.36-1.28,2.16-1.77.18-.11.28-.36.47-.46.78-.43,1.42-1.06,2.19-1.5l.12-.07a.44.44,0,0,1,.6.06l1.9,1.87c.56.56,1.13,1.13,1.68,1.72a4.91,4.91,0,0,1,.47.63.11.11,0,0,1,0,.11.23.23,0,0,1-.12.06l-1.28-.32a3.88,3.88,0,0,0-.64-.19C167.24,73.83,166.31,73.77,165.43,73.7Z" transform="translate(-22.74 -29.32)"></path><path class="cls-1" d="M201.06,169.16c-.1.25.12.37.22.53a.23.23,0,0,1,0,.12c-.08,0-.19,0-.23,0a.53.53,0,0,1-.15-.31c0-.11.1-.22.16-.33Z" transform="translate(-22.74 -29.32)"></path><path class="cls-1" d="M192.86,95.34l-.18-.1.06-.06.09.2Z" transform="translate(-22.74 -29.32)"></path><path class="cls-1" d="M192.66,209.61l.29.11c-.15.1-.2-.07-.3-.11Z" transform="translate(-22.74 -29.32)"></path><path class="cls-1" d="M213.08,141.27c0,.12,0,.24,0,.36s0,.16-.08.15a.12.12,0,0,1-.07-.05.25.25,0,0,1,0-.12c0-.11.08-.23.12-.35S213.08,141.27,213.08,141.27Z" transform="translate(-22.74 -29.32)"></path><path class="cls-1" d="M143.7,134.93c0,.11.07.22,0,.31s0-.06,0-.07a2.25,2.25,0,0,1,.12-.21Z" transform="translate(-22.74 -29.32)"></path><path class="cls-1" d="M133.82,130.14c0,.1.05.23-.12.25,0,0,0-.09,0-.09a1,1,0,0,1,.19-.12Z" transform="translate(-22.74 -29.32)"></path><path class="cls-1" d="M129.44,110.37c0-.09-.06-.12,0,0Z" transform="translate(-22.74 -29.32)"></path><path class="cls-1" d="M129.41,110.38a.42.42,0,0,0-.37.32v0a.62.62,0,0,0,.39-.37Z" transform="translate(-22.74 -29.32)"></path><polygon class="cls-1" points="190.65 113.07 190.57 113.1 190.58 113.02 190.65 113.07"></polygon><path class="cls-1" d="M126.42,74.3v-.08c-.08,0-.07,0,0,0Z" transform="translate(-22.74 -29.32)"></path></svg> 