<svg version="1.1" xmlns="http://www.w3.org/2000/svg" x="0px" y="0px" viewBox="0 0 740.9 42.9" class="md:w-1/3"><g><path class="fill-[#FFCC66] stroke-[#FFCC66]" d="M5.17,3.6h14.59c2.58,0,5.01,0.49,7.27,1.47c2.26,0.98,4.24,2.28,5.94,3.91c1.69,1.63,3.03,3.52,4,5.68 c0.97,2.16,1.46,4.43,1.46,6.79c0,2.34-0.48,4.59-1.43,6.75c-0.96,2.16-2.28,4.07-3.98,5.71c-1.69,1.64-3.67,2.95-5.94,3.93 s-4.71,1.47-7.32,1.47H5.17V3.6z M15.04,31.44h2.26c1.71,0,3.24-0.25,4.58-0.76c1.34-0.5,2.47-1.2,3.4-2.08 c0.92-0.88,1.63-1.93,2.11-3.15c0.49-1.21,0.73-2.55,0.73-4c0-1.42-0.25-2.75-0.75-3.98s-1.22-2.29-2.14-3.17 c-0.92-0.88-2.06-1.58-3.4-2.08c-1.34-0.5-2.85-0.76-4.53-0.76h-2.26V31.44z"></path><path class="fill-[#18A39C] stroke-[#18A39C]" d="M63.21,3.6v35.7h-9.86V3.6H63.21z"></path><path class="fill-[#D75C38] stroke-[#D75C38]" d="M86.47,3.6l9.16,21.73l9.21-21.73h10.72l-16,35.7H91.7L75.75,3.6H86.47z"></path><path class="fill-[#36160F] stroke-[#36160F]" d="M149.68,11.46h-11.73v5.97h11.07v7.86h-11.07v6.16h11.73v7.86h-21.59V3.6h21.59V11.46z"></path><path class="fill-[#F79A68] stroke-[#F79A68]" d="M197.47,39.3h-12.28l-9.41-13.73V39.3h-9.86V3.6h15.35c2.11,0,3.96,0.29,5.54,0.88 c1.58,0.58,2.88,1.38,3.9,2.39c1.02,1.01,1.79,2.18,2.31,3.5c0.52,1.33,0.78,2.75,0.78,4.26c0,2.71-0.7,4.92-2.09,6.61 c-1.39,1.69-3.45,2.83-6.16,3.43L197.47,39.3z M175.78,19.56h1.86c1.95,0,3.44-0.38,4.48-1.14c1.04-0.76,1.56-1.85,1.56-3.27 s-0.52-2.51-1.56-3.27c-1.04-0.76-2.53-1.14-4.48-1.14h-1.86V19.56z"></path><path class="fill-[#CD9A66] stroke-[#CD9A66]" d="M231.02,12.74c-1.07-0.82-2.15-1.43-3.22-1.82c-1.07-0.39-2.11-0.59-3.12-0.59c-1.28,0-2.31,0.28-3.12,0.85 s-1.21,1.31-1.21,2.23c0,0.63,0.2,1.15,0.6,1.56c0.4,0.41,0.93,0.77,1.58,1.07c0.65,0.3,1.39,0.56,2.21,0.78 c0.82,0.22,1.64,0.46,2.44,0.71c3.22,1.01,5.58,2.36,7.07,4.05c1.49,1.69,2.24,3.89,2.24,6.61c0,1.83-0.33,3.49-0.98,4.97 c-0.65,1.48-1.61,2.75-2.87,3.81c-1.26,1.06-2.8,1.88-4.63,2.46c-1.83,0.58-3.9,0.88-6.21,0.88c-4.8,0-9.24-1.34-13.34-4.02 l4.23-7.48c1.48,1.23,2.94,2.15,4.38,2.75c1.44,0.6,2.87,0.9,4.28,0.9c1.61,0,2.81-0.35,3.6-1.04c0.79-0.69,1.18-1.48,1.18-2.37 c0-0.54-0.1-1-0.3-1.4c-0.2-0.39-0.54-0.76-1.01-1.09c-0.47-0.33-1.08-0.64-1.84-0.92s-1.67-0.6-2.74-0.95 c-1.28-0.38-2.52-0.8-3.75-1.25c-1.22-0.46-2.31-1.07-3.27-1.82c-0.96-0.76-1.73-1.71-2.31-2.86c-0.59-1.15-0.88-2.61-0.88-4.38 s0.31-3.37,0.93-4.81c0.62-1.44,1.49-2.67,2.62-3.69c1.12-1.03,2.5-1.82,4.13-2.39c1.63-0.57,3.45-0.85,5.46-0.85 c1.88,0,3.84,0.25,5.89,0.73c2.05,0.49,4.01,1.21,5.89,2.16L231.02,12.74z"></path><path class="fill-[#584D51] stroke-[#584D51]" d="M261.26,3.6v35.7h-9.86V3.6H261.26z"></path><path class="fill-[#FDDDCF] stroke-[#FDDDCF]" d="M292.08,11.46V39.3h-9.86V11.46h-8.1V3.6h26.07v7.86H292.08z"></path><path class="fill-[#359991] stroke-[#359991]" d="M324.45,22.16L310.61,3.6h11.78l7.05,9.75l7-9.75h11.78l-13.89,18.56V39.3h-9.86V22.16z"></path></g><g><path class="fill-[#18A39C] stroke-[#18A39C]" d="M482.92,15.77c-2.28-2.62-5.1-3.93-8.46-3.93c-1.48,0-2.84,0.25-4.1,0.76c-1.26,0.5-2.34,1.19-3.25,2.06 c-0.91,0.87-1.62,1.9-2.14,3.1c-0.52,1.2-0.78,2.49-0.78,3.88c0,1.42,0.26,2.73,0.78,3.93c0.52,1.2,1.24,2.24,2.16,3.13 c0.92,0.88,2,1.58,3.25,2.08s2.58,0.76,4.03,0.76c3.15,0,5.99-1.26,8.5-3.79v10.99l-1.01,0.33c-1.51,0.5-2.92,0.88-4.23,1.11 c-1.31,0.24-2.6,0.35-3.88,0.35c-2.62,0-5.12-0.47-7.52-1.4s-4.51-2.24-6.34-3.93c-1.83-1.69-3.3-3.69-4.4-6.01 c-1.11-2.32-1.66-4.85-1.66-7.6c0-2.75,0.54-5.26,1.64-7.55c1.09-2.29,2.55-4.26,4.38-5.92c1.83-1.66,3.95-2.95,6.37-3.88 c2.42-0.93,4.95-1.4,7.6-1.4c1.51,0,2.99,0.15,4.45,0.45c1.46,0.3,2.99,0.77,4.6,1.4V15.77z"></path><path class="fill-[#F4C674] stroke-[#F4C674]" d="M496.18,21.69c0-2.65,0.52-5.12,1.56-7.41c1.04-2.29,2.48-4.29,4.33-5.99c1.84-1.7,4.05-3.04,6.62-4 c2.57-0.96,5.39-1.44,8.48-1.44c3.05,0,5.87,0.48,8.45,1.44c2.58,0.96,4.81,2.3,6.67,4c1.86,1.71,3.31,3.7,4.35,5.99 c1.04,2.29,1.56,4.76,1.56,7.41c0,2.65-0.52,5.12-1.56,7.41s-2.49,4.29-4.35,5.99c-1.86,1.71-4.08,3.04-6.67,4 c-2.58,0.96-5.4,1.44-8.45,1.44c-3.09,0-5.91-0.48-8.48-1.44c-2.57-0.96-4.77-2.3-6.62-4c-1.85-1.7-3.29-3.7-4.33-5.99 S496.18,24.34,496.18,21.69z M506.5,21.69c0,1.42,0.28,2.73,0.86,3.93c0.57,1.2,1.34,2.24,2.31,3.12s2.11,1.57,3.4,2.06 c1.29,0.49,2.66,0.73,4.1,0.73c1.44,0,2.81-0.24,4.1-0.73c1.29-0.49,2.43-1.18,3.42-2.06c0.99-0.88,1.77-1.92,2.34-3.12 c0.57-1.2,0.86-2.51,0.86-3.93c0-1.42-0.29-2.73-0.86-3.93c-0.57-1.2-1.35-2.24-2.34-3.12c-0.99-0.88-2.13-1.57-3.42-2.06 c-1.29-0.49-2.66-0.73-4.1-0.73c-1.44,0-2.81,0.25-4.1,0.73c-1.29,0.49-2.42,1.18-3.4,2.06s-1.74,1.93-2.31,3.12 C506.78,18.96,506.5,20.27,506.5,21.69z"></path><path class="fill-[#351711] stroke-[#351711]" d="M563,3.84v27.84h11.83v7.86h-21.69V3.84H563z"></path><path class="fill-[#36160F] stroke-[#36160F]" d="M597.91,3.84v27.84h11.83v7.86h-21.69V3.84H597.91z"></path><path class="fill-[#F79A68] stroke-[#F79A68]" d="M644.54,11.7h-11.73v5.97h11.07v7.86h-11.07v6.16h11.73v7.86h-21.59V3.84h21.59V11.7z"></path><path class="fill-[#FDDDCF] stroke-[#FDDDCF]" d="M678.78,19.56h19.58c0,1.89-0.08,3.62-0.25,5.16s-0.5,2.98-1.01,4.31c-0.71,1.86-1.66,3.51-2.87,4.95 c-1.21,1.44-2.62,2.64-4.25,3.6c-1.63,0.96-3.41,1.7-5.36,2.2c-1.95,0.5-3.99,0.76-6.14,0.76c-2.95,0-5.64-0.46-8.08-1.37 c-2.43-0.92-4.52-2.2-6.27-3.86s-3.1-3.65-4.08-5.97s-1.46-4.88-1.46-7.69c0-2.78,0.48-5.33,1.43-7.65 c0.96-2.32,2.31-4.3,4.08-5.94c1.76-1.64,3.88-2.92,6.37-3.84c2.48-0.92,5.25-1.37,8.3-1.37c3.96,0,7.43,0.81,10.42,2.42 c2.99,1.61,5.35,4.1,7.1,7.48l-9.36,3.65c-0.87-1.96-2-3.36-3.4-4.21c-1.39-0.85-2.98-1.28-4.76-1.28c-1.48,0-2.82,0.26-4.03,0.78 c-1.21,0.52-2.24,1.26-3.1,2.23c-0.86,0.96-1.53,2.12-2.01,3.48c-0.49,1.36-0.73,2.87-0.73,4.55c0,1.51,0.21,2.92,0.63,4.21 c0.42,1.29,1.05,2.42,1.89,3.36c0.84,0.95,1.88,1.68,3.12,2.2c1.24,0.52,2.68,0.78,4.33,0.78c0.97,0,1.91-0.1,2.82-0.31 c0.91-0.2,1.72-0.54,2.44-0.99c0.72-0.46,1.32-1.05,1.79-1.78c0.47-0.73,0.79-1.61,0.96-2.65h-8.1V19.56z"></path><path class="fill-[#CD9A66] stroke-[#CD9A66]" d="M734.78,11.7h-11.73v5.97h11.07v7.86h-11.07v6.16h11.73v7.86h-21.59V3.84h21.59V11.7z"></path></g><g><path d="M394.87,26.49h-4.89l-0.79,2.15h-3.65l5.01-12.4h3.74l5.01,12.4h-3.65L394.87,26.49z M393.97,24.04l-1.54-4.13l-1.54,4.13 H393.97z"></path><path d="M407.46,18.98v9.67h-3.42v-9.67h-2.81v-2.73h9.05v2.73H407.46z"></path></g><g id="Rectangle_3_copy"><rect x="378.2" y="34.24" width="39.38" height="2.56"></rect></g><g id="Rectangle_3"><rect x="378.2" y="8.78" width="39.38" height="2.59"></rect></g></svg>
